<?xml version="1.0" encoding="iso-8859-1"?>
<!-- Generator: Adobe Illustrator 19.0.0, SVG Export Plug-In . SVG Version: 6.00 Build 0)  -->
<svg version="1.1" id="Capa_1" xmlns="http://www.w3.org/2000/svg" xmlns:xlink="http://www.w3.org/1999/xlink" x="0px" y="0px"
	 viewBox="0 0 512 512" style="enable-background:new 0 0 512 512;" xml:space="preserve">
<g>
	<g>
		<path d="M508.875,493.792c-23.583-23.583-29.917-69.644-37.25-122.987c-9.845-71.755-22.178-160.343-83.729-231.61l32.521-32.52
			h48.917c4.438,0,8.417-2.76,9.979-6.917l32-85.331c1.479-3.917,0.521-8.333-2.438-11.291c-2.958-2.958-7.333-3.937-11.292-2.448
			L412.25,32.687c-4.167,1.563-6.917,5.542-6.917,9.989v48.916l-32.492,32.491c-70.917-61.465-159.729-73.832-231.654-83.709
			C87.854,33.042,41.792,26.708,18.208,3.136c-4.167-4.167-10.917-4.167-15.083,0C1.042,5.219,0,7.948,0,10.678
			c0,1.457,0.346,2.893,0.94,4.251l-0.044,0.02l146.417,334.659L134.25,362.67H74.667c-2.833,0-5.542,1.125-7.542,3.125l-64,63.999
			c-3.042,3.052-3.958,7.635-2.313,11.625s5.542,6.583,9.854,6.583H64v53.332c0,4.312,2.604,8.208,6.583,9.854
			c1.313,0.552,2.708,0.813,4.083,0.813c2.771,0,5.5-1.083,7.542-3.125l64-63.999c2-2,3.125-4.708,3.125-7.542v-59.582
			l13.063-13.062l334.667,146.414l0.02-0.044c1.358,0.594,2.794,0.94,4.251,0.94c2.729,0,5.458-1.042,7.542-3.125
			c2.083-2.083,3.125-4.812,3.125-7.542C512,498.604,510.958,495.875,508.875,493.792z M426.667,50.063l56.438-21.167
			l-21.167,56.438h-35.271V50.063z M96,464.917l-10.667,10.667v-38.25c0-5.896-4.771-10.667-10.667-10.667h-38.25L47.083,416H96
			V464.917z M128,432.917l-10.667,10.667v-38.25c0-5.896-4.771-10.667-10.667-10.667h-38.25L79.083,384H128V432.917z M450.5,373.708
			c1.25,9.135,2.479,18.083,3.771,26.771c-5.354-13.844-10.417-28.177-15.563-42.729c-12.788-36.16-26.738-75.172-47.488-112.453
			l15.783-39.445C434.563,259.997,443.034,319.423,450.5,373.708z M393.4,182.469l-16.013,40.018
			c-9.273-14.122-19.917-27.757-32.006-40.784l27.18-27.18C380.313,163.574,387.244,172.892,393.4,182.469z M357.521,139.396
			l-27.224,27.224c-13.975-12.969-28.676-24.197-43.888-33.956l42.906-14.307C338.993,124.566,348.404,131.553,357.521,139.396z
			 M138.292,61.5c53.806,7.395,112.661,15.829,166.249,42.638l-42.479,14.164c-35.875-19.354-73.146-32.756-107.811-45.01
			c-14.563-5.146-28.896-10.208-42.729-15.573C120.208,59.01,129.146,60.24,138.292,61.5z M37.474,45.336
			c32.203,20.561,70.09,34.087,109.651,48.07c58.176,20.557,118.109,42.089,168.092,88.293L163.507,333.41L37.474,45.336z
			 M178.59,348.494l151.711-151.711c46.204,49.983,67.736,109.905,88.283,168.072c13.991,39.57,27.521,77.465,48.083,109.673
			L178.59,348.494z"/>
	</g>
</g>
<g>
</g>
<g>
</g>
<g>
</g>
<g>
</g>
<g>
</g>
<g>
</g>
<g>
</g>
<g>
</g>
<g>
</g>
<g>
</g>
<g>
</g>
<g>
</g>
<g>
</g>
<g>
</g>
<g>
</g>
</svg>
