<svg width="26" height="24" viewBox="0 0 26 24" fill="none" xmlns="http://www.w3.org/2000/svg">
<path d="M23.03 14.6C23.03 15.03 22.68 15.39 22.24 15.39H2.75997C2.32997 15.39 1.96997 15.04 1.96997 14.6V3.48C1.96997 3.05 2.31997 2.69 2.75997 2.69H22.25C22.68 2.69 23.04 3.04 23.04 3.48V14.6H23.03Z" stroke="black" stroke-width="0.75" stroke-miterlimit="10" stroke-linecap="round" stroke-linejoin="round"/>
<path d="M13.14 17.3C13.14 17.65 12.85 17.94 12.5 17.94C12.15 17.94 11.86 17.65 11.86 17.3C11.86 16.95 12.15 16.66 12.5 16.66C12.85 16.66 13.14 16.95 13.14 17.3Z" fill="black"/>
<path d="M18.11 23.21C18.11 23.62 17.81 23.95 17.43 23.95H7.57001C7.20001 23.95 6.89001 23.62 6.89001 23.21C6.89001 22.8 7.19001 22.47 7.57001 22.47H17.43C17.81 22.47 18.11 22.8 18.11 23.21Z" fill="black"/>
<path d="M15.4 19.03H12.5H9.60002C9.60002 19.03 9.85002 20.53 8.52002 22.47H12.5H16.48C15.15 20.53 15.4 19.03 15.4 19.03Z" stroke="black" stroke-width="0.75" stroke-miterlimit="10" stroke-linecap="round" stroke-linejoin="round"/>
</svg>
