<svg width="17" height="17" viewBox="0 0 17 17" fill="none" xmlns="http://www.w3.org/2000/svg">
<path d="M1.95276 1.16338L1.23717 2.32674C1.23717 2.32674 -1.47963 6.04709 4.34208 11.8882C4.34208 11.9003 4.35421 11.9124 4.36634 11.9245C4.37847 11.9366 4.37847 11.9487 4.3906 11.9487C10.2487 17.7534 13.96 15.051 13.96 15.051L15.1365 14.3361C15.8036 13.8271 15.8763 12.8455 15.282 12.2517L13.8873 10.8581C13.4021 10.3734 12.6259 10.3128 12.0801 10.7248L10.6004 11.6821C10.6004 11.6821 9.60588 12.2759 6.80418 9.48871C4.01461 6.68936 4.60891 5.69565 4.60891 5.69565L5.55494 4.20509C5.96731 3.65977 5.90667 2.88419 5.42152 2.39945L4.03887 1.00584C3.44457 0.412038 2.46215 0.484748 1.95276 1.16338Z" stroke="black" stroke-miterlimit="10"/>
</svg>
