<svg id="Capa_1" enable-background="new 0 0 512.002 512.002" height="512" viewBox="0 0 512.002 512.002" width="512" xmlns="http://www.w3.org/2000/svg"><g><path d="m361.001 225h-37.5v-32.5c0-15.164-12.337-27.5-27.5-27.5h-50c-12.465 0-23.013 8.339-26.375 19.729-42.52-3.268-76.125-38.886-76.125-82.229 0-4.142-3.358-7.5-7.5-7.5s-7.5 3.358-7.5 7.5c0 51.239 39.729 93.372 90 97.214v60.044c-9.693 11.989-15 26.935-15 42.406v50.336c0 4.142 3.358 7.5 7.5 7.5h22.5v33.222c0 4.67-4.022 10.305-8.439 11.822l-69.497 23.869c-3.03 1.041-5.064 3.89-5.064 7.093v30c0 4.142 3.358 7.5 7.5 7.5s7.5-3.358 7.5-7.5v-24.646l64.433-22.129c10.412-3.576 18.567-15 18.567-26.009v-33.222h45v134.5c0 3.228 2.065 6.094 5.128 7.115l30 10c.787.262 1.587.387 2.373.387 3.141 0 6.066-1.988 7.114-5.13 1.31-3.93-.814-8.177-4.743-9.487l-24.872-8.291v-129.094h7.5c4.143 0 7.5-3.358 7.5-7.5v-112.5h37.5c4.136 0 7.5 3.364 7.5 7.5 0 4.142 3.357 7.5 7.5 7.5s7.5-3.358 7.5-7.5c0-12.407-10.094-22.5-22.5-22.5zm-115-45h50c6.893 0 12.5 5.607 12.5 12.5v62.5h-75v-62.5c0-6.893 5.607-12.5 12.5-12.5zm-27.5 165v-42.835c0-11.687 3.905-22.982 11.039-32.165h78.961v75z"/><path d="m206.001 165c15.164 0 27.5-12.336 27.5-27.5v-3.308c9.537 9.745 22.821 15.808 37.5 15.808 28.948 0 52.5-23.551 52.5-52.5v-45c0-28.949-23.552-52.5-52.5-52.5-28.949 0-52.5 23.551-52.5 52.5v38.098c-22.64 3.607-40 23.263-40 46.902 0 15.164 12.336 27.5 27.5 27.5zm65-30c-18.229 0-33.454-13.076-36.806-30.34 25.031-2.055 47.915-13.495 64.607-32.299 6.024 6.656 9.7 15.476 9.7 25.139-.001 20.678-16.823 37.5-37.501 37.5zm-36.651-45.42c3.646-16.886 18.691-29.58 36.651-29.58 5.583 0 10.881 1.236 15.647 3.433-13.718 14.935-32.144 24.147-52.298 26.147zm36.651-74.58c20.678 0 37.5 16.822 37.5 37.5v8.308c-9.537-9.745-22.821-15.808-37.5-15.808s-27.963 6.063-37.5 15.808v-8.308c0-20.678 16.822-37.5 37.5-37.5zm-52.5 90.874v31.626c0 6.893-5.607 12.5-12.5 12.5s-12.5-5.607-12.5-12.5c0-15.34 10.683-28.232 25-31.626z"/></g></svg>