<svg width="26" height="22" viewBox="0 0 26 22" fill="none" xmlns="http://www.w3.org/2000/svg">
<path d="M24.7128 21.1437C24.7128 21.4162 24.4888 21.64 24.2162 21.64H0.856883C0.584244 21.64 0.360291 21.4162 0.360291 21.1437V5.17591C0.360291 4.90346 0.584244 4.67966 0.856883 4.67966H24.2064C24.4791 4.67966 24.703 4.90346 24.703 5.17591V21.1437H24.7128Z" stroke="black" stroke-width="0.75" stroke-miterlimit="10" stroke-linecap="round" stroke-linejoin="round"/>
<path d="M0.370056 11.1894H24.7128" stroke="black" stroke-width="0.75" stroke-miterlimit="10" stroke-linecap="round" stroke-linejoin="round"/>
<path d="M7.29309 4.67965V1.20585C7.29309 0.933397 7.51704 0.709595 7.78968 0.709595H17.2834C17.556 0.709595 17.7799 0.933397 17.7799 1.20585V4.67965" stroke="black" stroke-width="0.75" stroke-miterlimit="10" stroke-linecap="round" stroke-linejoin="round"/>
<path d="M9.48392 9.48654H8.41284V13.8264H9.48392V9.48654Z" fill="black"/>
<path d="M16.6602 9.48654H15.5891V13.8264H16.6602V9.48654Z" fill="black"/>
</svg>
